<?xml version="1.0" standalone="no"?>
<!DOCTYPE svg PUBLIC "-//W3C//DTD SVG 20010904//EN"
 "http://www.w3.org/TR/2001/REC-SVG-20010904/DTD/svg10.dtd">
<svg version="1.0" xmlns="http://www.w3.org/2000/svg"
 width="700.000000pt" height="700.000000pt" viewBox="0 0 700.000000 700.000000"
 preserveAspectRatio="xMidYMid meet">
<metadata>
Created by potrace 1.11, written by Peter Selinger 2001-2013
</metadata>
<g transform="translate(0.000000,700.000000) scale(0.100000,-0.100000)"
fill="#000000" stroke="none">
<path d="M3265 6984 c-637 -51 -1190 -239 -1700 -579 -689 -458 -1201 -1153
-1424 -1932 -102 -356 -136 -601 -136 -978 0 -338 25 -548 100 -852 207 -833
716 -1560 1437 -2052 447 -306 1003 -513 1548 -575 184 -22 636 -22 820 0
1321 152 2458 1065 2894 2324 84 242 138 473 172 745 22 171 25 602 6 770 -97
824 -438 1539 -1008 2109 -557 557 -1263 902 -2054 1002 -120 15 -546 27 -655
18z m-574 -380 c59 -30 59 -32 59 -611 l0 -527 334 -336 c308 -309 335 -339
355 -393 41 -113 35 -220 -18 -325 -27 -53 -120 -144 -178 -173 -26 -13 -50
-25 -52 -27 -3 -1 65 -73 151 -160 171 -173 195 -212 205 -338 13 -147 -88
-314 -232 -384 l-45 -22 25 -36 c32 -47 65 -152 65 -206 -2 -239 -240 -443
-465 -398 -92 19 -145 51 -251 154 l-100 98 -24 -58 c-28 -69 -132 -177 -200
-210 -149 -71 -304 -44 -431 75 l-68 65 -103 -4 c-89 -3 -108 -6 -136 -26 -45
-32 -65 -77 -65 -142 0 -60 11 -90 51 -133 43 -45 80 -49 366 -42 144 4 409 4
590 0 l330 -7 28 -28 c40 -40 40 -110 0 -149 l-27 -28 -235 -6 c-129 -4 -345
-7 -480 -7 -244 0 -246 0 -281 -24 -46 -31 -69 -80 -69 -146 0 -66 23 -115 69
-146 l36 -24 555 1 555 0 375 410 c206 226 395 429 419 451 40 37 46 40 87 35
25 -2 54 -13 64 -22 28 -26 44 -84 32 -116 -8 -20 -697 -783 -853 -944 l-29
-30 -418 -5 -417 -5 -39 -24 c-105 -66 -98 -240 13 -298 l44 -23 601 0 601 1
309 369 c182 217 320 373 335 379 14 6 37 11 50 13 37 4 375 472 361 498 -13
24 -13 76 0 120 22 78 30 198 20 292 -18 158 -22 164 -350 493 -158 160 -302
313 -319 340 -53 83 -75 172 -69 277 5 80 10 99 47 173 92 185 289 290 485
257 147 -26 173 -44 464 -337 l263 -265 -3 372 -3 373 -27 59 c-44 93 -92 149
-175 207 -199 136 -300 298 -324 517 -6 58 -9 298 -7 597 3 458 4 502 21 526
40 59 113 65 163 15 l34 -34 0 -534 c0 -575 3 -617 53 -714 35 -69 89 -128
161 -176 137 -93 201 -164 262 -293 61 -126 64 -159 64 -674 l0 -464 154 -158
c251 -257 263 -295 253 -814 -6 -318 -15 -376 -86 -520 -51 -104 -81 -138
-505 -585 l-356 -375 0 -399 0 -398 -34 -34 c-65 -65 -149 -37 -180 59 -5 16
-60 17 -971 17 l-965 0 0 -21 c0 -33 -62 -89 -99 -89 -41 0 -77 18 -98 49 -16
23 -18 60 -21 343 l-3 318 -37 0 c-120 0 -231 42 -306 115 -104 101 -142 270
-92 411 l14 41 -62 5 c-126 11 -242 93 -299 216 -41 88 -49 207 -20 295 l20
57 -26 6 c-51 12 -142 68 -182 111 -66 72 -93 142 -97 250 -3 63 1 108 12 145
31 109 133 215 237 248 24 7 46 15 48 17 3 2 -43 52 -102 111 -114 116 -140
159 -155 254 -27 172 80 361 241 428 l56 23 -24 31 c-86 115 -103 262 -46 391
35 79 143 179 239 221 2 1 -13 30 -32 65 -85 155 -60 322 68 457 48 51 130
102 186 115 25 6 25 8 25 109 0 93 3 109 28 160 42 85 116 161 195 200 58 29
79 33 159 36 l93 4 0 470 0 470 34 34 c39 39 77 44 127 18z"/>
<path d="M5461 2790 c1 -299 3 -388 12 -365 16 44 16 713 0 740 -10 16 -12
-60 -12 -375z"/>
</g>
</svg>
