<?xml version="1.0" encoding="UTF-8" standalone="no"?>
<svg
   xmlns:dc="http://purl.org/dc/elements/1.1/"
   xmlns:cc="http://creativecommons.org/ns#"
   xmlns:rdf="http://www.w3.org/1999/02/22-rdf-syntax-ns#"
   xmlns:svg="http://www.w3.org/2000/svg"
   xmlns="http://www.w3.org/2000/svg"
   xmlns:sodipodi="http://sodipodi.sourceforge.net/DTD/sodipodi-0.dtd"
   xmlns:inkscape="http://www.inkscape.org/namespaces/inkscape"
   inkscape:version="1.0rc1 (09960d6, 2020-04-09)"
   sodipodi:docname="activstFilled.svg"
   id="svg855"
   version="1.1"
   viewBox="0 0 64 64">
  <metadata
     id="metadata861">
    <rdf:RDF>
      <cc:Work
         rdf:about="">
        <dc:format>image/svg+xml</dc:format>
        <dc:type
           rdf:resource="http://purl.org/dc/dcmitype/StillImage" />
      </cc:Work>
    </rdf:RDF>
  </metadata>
  <defs
     id="defs859" />
  <sodipodi:namedview
     inkscape:current-layer="svg855"
     inkscape:window-maximized="0"
     inkscape:window-y="0"
     inkscape:window-x="0"
     inkscape:cy="35.843868"
     inkscape:cx="30.929436"
     inkscape:zoom="11.547445"
     showgrid="false"
     id="namedview857"
     inkscape:window-height="1120"
     inkscape:window-width="1792"
     inkscape:pageshadow="2"
     inkscape:pageopacity="0"
     guidetolerance="10"
     gridtolerance="10"
     objecttolerance="10"
     borderopacity="1"
     bordercolor="#666666"
     pagecolor="#ffffff" />
  <title
     id="title833" />
  <path
     d="M 63.996838,32.085018 A 31.998419,31.998419 0 0 1 32.079956,64.083333 31.998419,31.998419 0 0 1 4.1554369e-4,32.248093 31.998419,31.998419 0 0 1 31.753808,0.08753432 31.998419,31.998419 0 0 1 63.995175,31.758873"
     sodipodi:arc-type="arc"
     sodipodi:open="true"
     sodipodi:end="6.2729926"
     sodipodi:start="0"
     sodipodi:ry="31.998419"
     sodipodi:rx="31.998419"
     sodipodi:cy="32.085018"
     sodipodi:cx="31.998419"
     sodipodi:type="arc"
     id="path869"
     style="fill:#0b2640;fill-opacity:1;stroke-width:0.999999;stroke-linecap:round;stroke-linejoin:round;stroke-dasharray:0.999999, 0.99999899999999997;paint-order:stroke markers fill" />
  <g
     id="fd27738a-9384-4dfb-ab72-9e84973440a7"
     data-name="Day 29">
    <g
       id="c1119417-1d88-4b2f-8492-a117068748f2"
       data-name="&lt;Group&gt;">
      <rect
         y="12.55"
         x="22.61"
         width="5.2"
         transform="translate(-6.16 23.44) rotate(-45)"
         ry="2.46"
         rx="2.46"
         id="13e90085-66f9-4185-89e4-3ba9dd6d4208"
         height="13.22"
         fill="#01D3FE"
         data-name="Rectangle-path" />
      <rect
         y="16.35"
         x="21.51"
         width="5.2"
         transform="translate(-11.02 24.54) rotate(-45)"
         ry="2.46"
         rx="2.46"
         id="2b819bac-113d-472e-b6bb-af5558f4d8f5"
         height="18.45"
         fill="#01D3FE"
         data-name="Rectangle-path" />
      <rect
         y="29.22"
         x="15.18"
         width="5.2"
         transform="translate(-19.21 22.69) rotate(-45)"
         ry="2.46"
         rx="2.46"
         id="31355db8-12fa-4725-91d3-0ac94b56ee75"
         height="10.62"
         fill="#01D3FE"
         data-name="Rectangle-path" />
      <path
         id="043b767c-8362-453c-84f5-935dfcb362dc"
         fill="#01D3FE"
         data-name="Shape"
         d="M32.72,59.53h9.83V51.27l7.37-7.56V33.84l-9.36-9.89s-3.8-.61-3.77,0-2.46,3.08-.54,5,5.45,6.12,5.45,6.12l.15,5.21L32.33,53.41H22.89v6.12Z" />
      <rect
         y="53.47"
         x="22"
         width="8"
         id="32587656-2878-41a9-8503-d960ff2013c8"
         height="6"
         fill="#01D3FE"
         data-name="&lt;Rectangle&gt;" />
      <rect
         y="12.55"
         x="22.61"
         width="5.2"
         transform="translate(-6.16 23.44) rotate(-45)"
         stroke-width="2"
         stroke-linejoin="round"
         stroke-linecap="round"
         stroke="#FFFFFF"
         ry="2.46"
         rx="2.46"
         id="1f44d87e-dd56-4910-aade-219d22e41773"
         height="13.22"
         fill="none"
         data-name="Rectangle-path" />
      <rect
         y="29.22"
         x="15.18"
         width="5.2"
         transform="translate(-19.21 22.69) rotate(-45)"
         stroke-width="2"
         stroke-linejoin="round"
         stroke-linecap="round"
         stroke="#FFFFFF"
         ry="2.46"
         rx="2.46"
         id="3dc9502d-f256-43ed-9808-bc83e81cc553"
         height="10.62"
         fill="none"
         data-name="Rectangle-path" />
      <path
         stroke-width="2"
         stroke-linejoin="round"
         stroke-linecap="round"
         stroke="#FFFFFF"
         id="62a096aa-73eb-4346-a319-ca2c3c82ad42"
         fill="none"
         data-name="Shape"
         d="M25.65,42.66H15.31a2.46,2.46,0,0,1-2.46-2.45v-.29a2.46,2.46,0,0,1,2.46-2.45h1.76" />
      <path
         stroke-width="2"
         stroke-linejoin="round"
         stroke-linecap="round"
         stroke="#FFFFFF"
         id="b683da5a-6c79-4a02-abe0-aef7e84dd74f"
         fill="none"
         data-name="Shape"
         d="M23.81,47.85h-6a2.46,2.46,0,0,1-2.46-2.45v-.29a2.46,2.46,0,0,1,2.46-2.45h5.12" />
      <path
         stroke-width="2"
         stroke-linejoin="round"
         stroke-linecap="round"
         stroke="#FFFFFF"
         id="ced3ab25-9ef1-40f3-85be-d131cc9292d3"
         fill="none"
         data-name="Shape"
         d="M27.65,47.85H21.13a2.46,2.46,0,0,0-2.46,2.45v.29A2.46,2.46,0,0,0,21.13,53h11.2l5.83-6.94" />
      <rect
         y="16.35"
         x="21.51"
         width="5.2"
         transform="translate(-11.02 24.54) rotate(-45)"
         stroke-width="2"
         stroke-linejoin="round"
         stroke-linecap="round"
         stroke="#FFFFFF"
         ry="2.46"
         rx="2.46"
         id="f1f535fc-75fd-4e36-9c0e-7798e17f754c"
         height="18.45"
         fill="none"
         data-name="Rectangle-path" />
      <rect
         y="22.1"
         x="19.77"
         width="5.2"
         transform="translate(-15.6 24.99) rotate(-45)"
         ry="2.46"
         rx="2.46"
         id="a2d8f81b-25a8-4de3-87bc-852520398169"
         height="18.45"
         fill="#01D3FE"
         data-name="Rectangle-path" />
      <rect
         y="22.1"
         x="19.77"
         width="5.2"
         transform="translate(-15.6 24.99) rotate(-45)"
         stroke-width="2"
         stroke-linejoin="round"
         stroke-linecap="round"
         stroke="#FFFFFF"
         ry="2.46"
         rx="2.46"
         id="488248b4-26ad-4a7d-b27b-20f6a6a89745"
         height="18.45"
         fill="none"
         data-name="Rectangle-path" />
      <path
         stroke-width="2"
         stroke-linejoin="round"
         stroke-linecap="round"
         stroke="#FFFFFF"
         id="47cb1993-6c57-48a8-8ac1-398e634494f3"
         fill="none"
         data-name="Shape"
         d="M42.55,59.53V52.19l6.93-7.32a6.12,6.12,0,0,0,1.68-4.2V35.91a3.61,3.61,0,0,0-1-2.53l-8.66-8.81a3.27,3.27,0,0,0-4.64,0h0a3.24,3.24,0,0,0,0,4.59L41.68,34a4.46,4.46,0,0,1,1,2.46A8.16,8.16,0,0,1,42.38,40" />
      <path
         stroke-width="2"
         stroke-linejoin="round"
         stroke-linecap="round"
         stroke="#FFFFFF"
         id="08ac3c5e-c8cf-4d84-8120-1a99e702da40"
         fill="none"
         data-name="Shape"
         d="M42.55,4.47v9.22A5.08,5.08,0,0,0,45,18h0a5.08,5.08,0,0,1,2.46,4.35v7.84" />
      <path
         stroke-width="2"
         stroke-linejoin="round"
         stroke-linecap="round"
         stroke="#FFFFFF"
         id="55a4c838-4e22-4e50-826a-c52685878fff"
         fill="none"
         data-name="Shape"
         d="M24.12,4.47v9.79" />
      <path
         stroke-width="2"
         stroke-linejoin="round"
         stroke-linecap="round"
         stroke="#FFFFFF"
         id="bc8f499a-8475-4bf6-a344-f9758444916b"
         fill="none"
         data-name="Shape"
         d="M27.85,47.85l7.6-8.28" />
      <path
         stroke-width="2"
         stroke-linejoin="round"
         stroke-linecap="round"
         stroke="#FFFFFF"
         id="2e8f3ef6-ad8f-4626-b312-b3bfc384582d"
         fill="none"
         data-name="Shape"
         d="M22.89,59.53V53.41" />
    </g>
  </g>
</svg>
