<?xml version="1.0" encoding="UTF-8" standalone="no"?>
<svg
   xmlns:dc="http://purl.org/dc/elements/1.1/"
   xmlns:cc="http://creativecommons.org/ns#"
   xmlns:rdf="http://www.w3.org/1999/02/22-rdf-syntax-ns#"
   xmlns:svg="http://www.w3.org/2000/svg"
   xmlns="http://www.w3.org/2000/svg"
   xmlns:sodipodi="http://sodipodi.sourceforge.net/DTD/sodipodi-0.dtd"
   xmlns:inkscape="http://www.inkscape.org/namespaces/inkscape"
   inkscape:version="1.0rc1 (09960d6, 2020-04-09)"
   sodipodi:docname="venmo-icon.svg"
   id="svg835"
   version="1.1"
   fill="#FFFFFF"
   height="19"
   width="95">
  <metadata
     id="metadata841">
    <rdf:RDF>
      <cc:Work
         rdf:about="">
        <dc:format>image/svg+xml</dc:format>
        <dc:type
           rdf:resource="http://purl.org/dc/dcmitype/StillImage" />
      </cc:Work>
    </rdf:RDF>
  </metadata>
  <defs
     id="defs839" />
  <sodipodi:namedview
     inkscape:current-layer="svg835"
     inkscape:window-maximized="0"
     inkscape:window-y="0"
     inkscape:window-x="0"
     inkscape:cy="23.336474"
     inkscape:cx="65.857819"
     inkscape:zoom="7.1960282"
     showgrid="false"
     id="namedview837"
     inkscape:window-height="1120"
     inkscape:window-width="1792"
     inkscape:pageshadow="2"
     inkscape:pageopacity="0"
     guidetolerance="10"
     gridtolerance="10"
     objecttolerance="10"
     borderopacity="1"
     bordercolor="#666666"
     pagecolor="#ffffff" />
  <path
     inkscape:connector-curvature="0"
     id="path833"
     d="m 15.618514,0.73813328 c 0.608,1.00400002 0.882,2.03700002 0.882,3.34300002 0,4.165 -3.555,9.5749997 -6.44,13.3739997 H 3.4605141 L 0.82551405,1.6501333 l 5.77000005,-0.548 1.398,11.2469997 c 1.306,-2.127 2.9169999,-5.4699997 2.9169999,-7.7499997 0,-1.248 -0.214,-2.097 -0.548,-2.797 z m 7.48,6.96000002 c 1.062,0 3.735,-0.486 3.735,-2.005 0,-0.73 -0.516,-1.094 -1.124,-1.094 -1.064,0 -2.46,1.276 -2.612,3.1 z m -0.122,2.9999997 c 0,1.855 1.032,2.583 2.4,2.583 1.5,0 2.915,-0.364 4.77,-1.306 l -0.698,4.74 c -1.306,0.638 -3.34,1.064 -5.317,1.064 -5,0 -6.805,-3.04 -6.805,-6.838 0,-4.9239997 2.917,-10.15299972 8.932,-10.15299972 3.3,0 5.163,1.85500002 5.163,4.44000002 0,4.165 -5.345,5.4399997 -8.444,5.4699997 z m 25.1,-6.2499997 c 0,0.608 -0.092,1.5 -0.184,2.066 l -1.733,10.9399997 h -5.62 l 1.58,-10.0299997 0.122,-1.124 c 0,-0.73 -0.456,-0.912 -1.004,-0.912 -0.728,0 -1.458,0.334 -1.944,0.578 l -1.792,11.4999997 h -5.65 l 2.582,-16.3829997 h 4.9 l 0.062,1.308 c 1.154,-0.76 2.673,-1.58000002 4.83,-1.58000002 2.856,0 3.86,1.46000002 3.86,3.65000002 z m 16.68,-1.856 c 1.6,-1.154 3.13,-1.79300002 5.224,-1.79300002 2.885,0 3.9,1.46000002 3.9,3.65000002 0,0.608 -0.092,1.5 -0.184,2.066 l -1.73,10.9399997 h -5.641 l 1.6,-10.2429997 0.092,-0.82 c 0,-0.822 -0.456,-1.004 -1.004,-1.004 -0.698,0 -1.396,0.304 -1.914,0.578 l -1.8,11.4999997 h -5.62 l 1.6,-10.2429997 0.1,-0.82 c 0,-0.822 -0.456,-1.004 -1.002,-1.004 -0.73,0 -1.458,0.334 -1.944,0.578 l -1.793,11.4999997 h -5.65 l 2.58,-16.3829997 h 4.83 l 0.152,1.368 c 1.124,-0.82 2.642,-1.64000002 4.677,-1.64000002 1.762,-0.001 2.916,0.76000002 3.494,1.79300002 z m 20.296,4.772 c 0,-1.337 -0.334,-2.25 -1.336,-2.25 -2.218,0 -2.673,3.92 -2.673,5.9259997 0,1.522 0.426,2.463 1.427,2.463 2.096,0 2.582,-4.1349997 2.582,-6.1399997 z m -9.72,3.4349997 c 0,-5.1669997 2.733,-9.99999972 9.022,-9.99999972 4.74,0 6.47,2.79700002 6.47,6.65800002 0,5.1069997 -2.704,10.3949997 -9.144,10.3949997 -4.77,0 -6.35,-3.13 -6.35,-7.052 z" />
</svg>
